<?xml version="1.0" encoding="utf-8"?>
<!-- Generator: Adobe Illustrator 19.0.0, SVG Export Plug-In . SVG Version: 6.00 Build 0)  -->
<svg version="1.1" id="图层_1" xmlns="http://www.w3.org/2000/svg" xmlns:xlink="http://www.w3.org/1999/xlink" x="0px" y="0px"
	 viewBox="-1013.1 416.1 17.6 17.6" style="enable-background:new -1013.1 416.1 17.6 17.6;" xml:space="preserve">
<style type="text/css">
	.st0{fill:#999999;}
</style>
<path id="XMLID_68_" class="st0" d="M-1011.9,416.1l15.8,5.3c0.5,0.2,0.7,0.6,0.6,1.1c-0.1,0.2-0.2,0.4-0.4,0.5l0,0l-4.6,2.4
	l4.4,4.4c0.3,0.3,0.3,0.9,0,1.2l-1.9,1.9c-0.3,0.3-0.9,0.3-1.2,0l-0.1,0l-4.4-4.4l-2.4,4.6c-0.2,0.4-0.8,0.6-1.2,0.4
	c-0.2-0.1-0.4-0.3-0.4-0.5l-5.2-15.7c-0.2-0.5,0.1-1,0.6-1.1C-1012.3,416.1-1012.1,416.1-1011.9,416.1L-1011.9,416.1z M-998.7,422.4
	L-998.7,422.4l-12.1-4l4,12.1l2-3.8c0.1-0.1,0.1-0.2,0.2-0.2c0.3-0.3,0.9-0.4,1.2,0l4.7,4.7l0.6-0.6l-4.6-4.6
	c-0.1-0.1-0.1-0.2-0.2-0.2c-0.2-0.4-0.1-1,0.4-1.2L-998.7,422.4L-998.7,422.4z"/>
</svg>
