<?xml version="1.0" encoding="utf-8"?>
<!-- Generator: Adobe Illustrator 19.0.0, SVG Export Plug-In . SVG Version: 6.00 Build 0)  -->
<svg version="1.1" id="图层_1" xmlns="http://www.w3.org/2000/svg" xmlns:xlink="http://www.w3.org/1999/xlink" x="0px" y="0px"
	 viewBox="-964.3 380.7 18.3 22.9" style="enable-background:new -964.3 380.7 18.3 22.9;" xml:space="preserve">
<style type="text/css">
	.st0{fill:#999999;}
</style>
<path id="XMLID_26_" class="st0" d="M-946.8,386.4h-3.5v-0.9c0-1.3-0.5-2.5-1.4-3.3l0,0c-0.9-0.9-2.1-1.4-3.4-1.4
	c-1.3,0-2.5,0.5-3.4,1.4c-0.9,0.9-1.4,2.1-1.4,3.4v0.9h-3.5c-0.5,0-0.9,0.4-0.9,0.9v15.4c0,0.5,0.4,0.9,0.9,0.9h16.5
	c0.5,0,0.9-0.4,0.9-0.9v-15.4C-945.9,386.9-946.3,386.4-946.8,386.4L-946.8,386.4z M-951.3,391.1L-951.3,391.1
	c0.1-0.1,0.3-0.2,0.4-0.2h0l0,0c0.2,0,0.3,0.1,0.5,0.2l0,0l0,0c0.1,0.1,0.2,0.3,0.2,0.5c0,0.2-0.1,0.3-0.2,0.5l0,0
	c-0.1,0.1-0.3,0.2-0.5,0.2c-0.2,0-0.3-0.1-0.5-0.2l0,0c-0.1-0.1-0.2-0.3-0.2-0.4C-951.5,391.4-951.4,391.2-951.3,391.1L-951.3,391.1
	L-951.3,391.1z M-958.8,385.5L-958.8,385.5c0-1,0.4-2,1.1-2.6c0.7-0.7,1.6-1.1,2.6-1.1c1,0,2,0.4,2.6,1.1l0,0
	c0.7,0.7,1.1,1.6,1.1,2.6v0.9h-7.4V385.5L-958.8,385.5z M-959.8,391.1L-959.8,391.1L-959.8,391.1c0.1-0.1,0.3-0.2,0.4-0.2h0l0,0
	c0.2,0,0.3,0.1,0.4,0.2l0,0c0.1,0.1,0.2,0.3,0.2,0.5c0,0.2-0.1,0.3-0.2,0.5l0,0c-0.1,0.1-0.3,0.2-0.5,0.2c-0.2,0-0.4-0.1-0.5-0.2
	l0,0c-0.1-0.1-0.2-0.3-0.2-0.4C-960,391.4-959.9,391.2-959.8,391.1L-959.8,391.1z M-947.7,401.9L-947.7,401.9h-14.8v-13.6h2.6v1.7
	c-0.3,0.1-0.5,0.2-0.7,0.4l0,0c-0.3,0.3-0.5,0.7-0.5,1.2c0,0.5,0.2,0.9,0.5,1.2l0,0c0.3,0.3,0.7,0.5,1.2,0.5c0.5,0,0.9-0.2,1.2-0.5
	l0,0c0.3-0.3,0.5-0.7,0.5-1.2c0-0.5-0.2-0.9-0.5-1.2l0,0c-0.2-0.2-0.4-0.3-0.7-0.4v-1.7h7.4v1.7c-0.2,0.1-0.5,0.2-0.7,0.4l0,0
	c-0.3,0.3-0.5,0.7-0.5,1.2c0,0.5,0.2,0.9,0.5,1.2l0,0c0.3,0.3,0.8,0.5,1.2,0.5c0.5,0,0.9-0.2,1.2-0.5l0,0c0.3-0.3,0.5-0.7,0.5-1.2
	c0-0.5-0.2-0.9-0.5-1.2c-0.2-0.2-0.4-0.3-0.7-0.4v-1.7h2.6V401.9L-947.7,401.9z"/>
</svg>
