<?xml version="1.0" encoding="utf-8"?>
<!-- Generator: Adobe Illustrator 19.0.0, SVG Export Plug-In . SVG Version: 6.00 Build 0)  -->
<svg version="1.1" id="图层_1" xmlns="http://www.w3.org/2000/svg" xmlns:xlink="http://www.w3.org/1999/xlink" x="0px" y="0px"
	 viewBox="-937 379.4 43.6 43.6" style="enable-background:new -937 379.4 43.6 43.6;" xml:space="preserve">
<style type="text/css">
	.st0{fill:#999999;}
</style>
<g id="XMLID_129_">
	<path id="XMLID_495_" class="st0" d="M-933.2,412.7c-0.3,0-0.7-0.2-0.9-0.5c-1.9-3.3-3-7.1-3-11c0.1-12,9.9-21.8,21.9-21.8
		c3.5,0,7,0.9,10.1,2.5c0.5,0.3,0.7,0.9,0.4,1.3c-0.3,0.5-0.9,0.7-1.3,0.4c-2.8-1.4-6-2.2-9.2-2.2c-10.9,0-19.8,8.9-19.8,19.8
		c0,3.5,0.9,7,2.7,10c0.3,0.5,0.1,1.1-0.4,1.4C-932.8,412.7-933,412.7-933.2,412.7z"/>
	<path id="XMLID_838_" class="st0" d="M-915.2,423c-4.4,0-8.6-1.3-12.2-3.7c-0.4-0.3-0.6-0.9-0.2-1.4c0.3-0.5,0.9-0.6,1.4-0.3
		c3.3,2.2,7.1,3.4,11.1,3.4c10.9,0,19.8-8.9,19.8-19.8c0-4.7-1.6-9.2-4.6-12.7c-0.4-0.4-0.3-1.1,0.1-1.4c0.4-0.4,1.1-0.3,1.4,0.1
		c3.3,3.9,5.1,8.9,5.1,14C-893.4,413.3-903.1,423-915.2,423z"/>
</g>
</svg>
