<?xml version="1.0" encoding="utf-8"?>
<!-- Generator: Adobe Illustrator 19.0.0, SVG Export Plug-In . SVG Version: 6.00 Build 0)  -->
<svg version="1.1" id="图层_1" xmlns="http://www.w3.org/2000/svg" xmlns:xlink="http://www.w3.org/1999/xlink" x="0px" y="0px"
	 viewBox="-1034.2 498.5 25.3 20.7" style="enable-background:new -1034.2 498.5 25.3 20.7;" xml:space="preserve">
<style type="text/css">
	.st0{fill:#999999;}
</style>
<path id="XMLID_67_" class="st0" d="M-1021.6,498.5c2.8,0,5.1,2,5.6,4.8c0.4-0.1,0.9-0.2,1.3-0.2c1.2,0,2.3,0.5,3.2,1.3
	c0.8,0.8,1.3,1.9,1.3,3.2c0,1.2-0.5,2.2-1.2,3l1.1,1.1c0.5,0.5,0.8,1,1.1,1.6c0.3,0.6,0.4,1.2,0.4,1.9v1.3c0,0.3-0.1,0.7-0.3,1
	c-0.2,0.3-0.5,0.5-1,0.6c0,0-0.1,0-0.1,0h-1v0.4c0,0.4-0.4,0.8-0.8,0.8h-9.4h-9.4c-0.5,0-0.8-0.3-0.8-0.8V518h-1c0,0-0.1,0-0.1,0
	c-0.4,0-0.7-0.3-1-0.6c-0.2-0.3-0.3-0.7-0.3-1v-1.3c0-0.7,0.1-1.3,0.4-1.9l0,0c0.4-1.1,1.3-1.8,2.1-2.6c-0.7-0.8-1.2-1.9-1.2-3
	c0-1.2,0.5-2.4,1.3-3.2c0.8-0.8,1.9-1.3,3.2-1.3c0.5,0,0.9,0.1,1.3,0.2C-1026.7,500.5-1024.4,498.5-1021.6,498.5L-1021.6,498.5z
	 M-1021.6,517.5L-1021.6,517.5h2.5c0-1.2,0-2.5,0-3.7c0-0.3,0.2-0.5,0.5-0.5c0.3,0,0.5,0.2,0.5,0.5v2.2h2.1c0-0.1,0-0.1,0-0.2V514
	c0-2.3-1.6-3.4-3.1-5c-0.8,0.4-1.7,0.6-2.6,0.6c-0.9,0-1.8-0.2-2.6-0.6c-1.5,1.5-3.1,2.6-3.1,5v1.7c0,0.1,0,0.1,0,0.2h2.1v-2.2
	c0-0.3,0.2-0.5,0.5-0.5c0.3,0,0.5,0.2,0.5,0.5c0,1.2,0,2.5,0,3.7H-1021.6L-1021.6,517.5z M-1021.6,508.1L-1021.6,508.1
	c2.2,0,4-1.7,4-4c0-2.2-1.8-4-4-4c-2.2,0-4,1.8-4,4C-1025.6,506.3-1023.8,508.1-1021.6,508.1L-1021.6,508.1z M-1030.2,517.5
	L-1030.2,517.5h2.4c-0.3-0.1-0.6-0.3-0.7-0.6c-0.2-0.3-0.4-0.8-0.4-1.2V514c0-0.7,0.1-1.4,0.4-2.1c-0.7,0-1.3-0.2-1.8-0.4
	c-0.7,0.7-1.6,1.4-2,2.3l0,0l0,0c-0.2,0.4-0.2,0.8-0.2,1.3v1.3h1.4v-1.4c0-0.3,0.2-0.5,0.5-0.5s0.5,0.2,0.5,0.5V517.5L-1030.2,517.5
	z M-1027.1,505L-1027.1,505c-0.2-0.1-0.3-0.2-0.5-0.2c-0.3-0.1-0.5-0.1-0.9-0.1c-0.8,0-1.5,0.3-2,0.8c-0.5,0.5-0.8,1.2-0.8,2
	c0,0.8,0.3,1.5,0.8,2c0.5,0.5,1.2,0.8,2,0.8c0.3,0,0.6,0,0.9-0.1c0.6-0.7,1.4-1.4,2-2.1C-1026.4,507.3-1026.9,506.2-1027.1,505
	L-1027.1,505z M-1013,517.5L-1013,517.5v-2.6c0-0.3,0.2-0.5,0.5-0.5c0.3,0,0.5,0.2,0.5,0.5v1.4h1.4v-1.3c0-0.5-0.1-0.9-0.2-1.3
	c-0.2-0.4-0.4-0.7-0.7-1l-1.2-1.2c-0.6,0.3-1.2,0.4-1.8,0.4c0.2,0.7,0.4,1.3,0.4,2.1v1.7c0,0.4-0.1,0.8-0.4,1.2
	c-0.2,0.3-0.4,0.5-0.7,0.6H-1013L-1013,517.5z M-1016,505L-1016,505c-0.2,1.3-0.7,2.2-1.6,3.1c0.7,0.7,1.4,1.3,2,2.1
	c0.1,0,0.3,0.1,0.3,0.1c0.2,0,0.4,0,0.6,0c0.8,0,1.5-0.3,2-0.8c0.5-0.5,0.8-1.2,0.8-2c0-0.8-0.3-1.5-0.8-2c-0.5-0.5-1.2-0.8-2-0.8
	c-0.3,0-0.6,0-0.9,0.1C-1015.7,504.8-1015.9,504.9-1016,505L-1016,505z"/>
</svg>
