<?xml version="1.0" encoding="utf-8"?>
<!-- Generator: Adobe Illustrator 19.0.0, SVG Export Plug-In . SVG Version: 6.00 Build 0)  -->
<svg version="1.1" id="图层_1" xmlns="http://www.w3.org/2000/svg" xmlns:xlink="http://www.w3.org/1999/xlink" x="0px" y="0px"
	 viewBox="-863 336.3 193 128.7" style="enable-background:new -863 336.3 193 128.7;" xml:space="preserve">
<path d="M-676.6,336.6c-0.5-0.1-0.9-0.3-1.4-0.3h-177c-0.4,0-0.9,0.2-1.4,0.3l89.9,74.9L-676.6,336.6z M-862.5,341.9
	c-0.3,0.8-0.5,1.6-0.5,2.4v112.6c0,0.7,0.2,1.3,0.4,2l63.8-63.8L-862.5,341.9z M-670.5,341.9l-63.7,53.1l63.8,63.8
	c0.2-0.6,0.4-1.3,0.4-2V344.3C-670,343.5-670.2,342.7-670.5,341.9z M-763.9,419.8c-0.7,0.6-1.6,0.9-2.6,0.9c-0.9,0-1.8-0.3-2.6-0.9
	l-23.5-19.6l-64.3,64.4c0.6,0.2,1.3,0.4,1.9,0.4h177c0.7,0,1.3-0.2,2-0.4l-64.4-64.4L-763.9,419.8z"/>
</svg>
