<?xml version="1.0" encoding="utf-8"?>
<!-- Generator: Adobe Illustrator 19.0.0, SVG Export Plug-In . SVG Version: 6.00 Build 0)  -->
<svg version="1.1" id="图层_1" xmlns="http://www.w3.org/2000/svg" xmlns:xlink="http://www.w3.org/1999/xlink" x="0px" y="0px"
	 viewBox="-849 300.4 220.8 201.6" style="enable-background:new -849 300.4 220.8 201.6;" xml:space="preserve">
<path d="M-849,502h49.2V364.1H-849V502z M-835.4,375h21.9v21.9h-21.9V375z M-835.4,414h21.9v21.9h-21.9V414z M-835.4,451.4h21.9v22
	h-21.9V451.4z M-788.2,502h82.1V300.4h-82.1V502z M-718.2,473.7h-21.9v-21.9h21.9V473.7z M-759.1,440.9V419h21.9v21.9H-759.1z
	 M-718.2,408h-21.9v-21.9h21.9V408z M-759.1,375.1v-21.9h21.9v21.9H-759.1z M-740.2,320.4h21.9v21.9h-21.9V320.4z M-778,320.4h22
	v21.9h-22V320.4z M-778,386.1h22V408h-22V386.1z M-778,451.8h22v21.9h-22V451.8z M-637.9,383.6v-26.2h-11.9v-25.6h-8.6V308h-7.2
	v23.8h-8.6v25.6h-11.9v26.2h-9.7V502h67.7V383.6H-637.9z M-662.7,487h-21.9v-21.9h21.9V487z M-662.7,419.7h-21.9v-21.9h21.9V419.7z
	 M-637,453h-21.9v-21.9h21.9V453z"/>
</svg>
