<?xml version="1.0" encoding="utf-8"?>
<!-- Generator: Adobe Illustrator 19.0.0, SVG Export Plug-In . SVG Version: 6.00 Build 0)  -->
<svg version="1.1" id="图层_1" xmlns="http://www.w3.org/2000/svg" xmlns:xlink="http://www.w3.org/1999/xlink" x="0px" y="0px"
	 viewBox="0 0 238.1 238.1" style="enable-background:new 0 0 238.1 238.1;" xml:space="preserve">
<style type="text/css">
	.st0{fill:#030000;}
</style>
<path id="XMLID_3352_" class="st0" d="M229,100.8h-11c-5,0-10.4-3.9-11.9-8.8l-6.3-15.3c-2.4-4.4-1.4-11,2.1-14.6l7.8-7.8
	c3.6-3.6,3.6-9.4,0-13l-13-13c-3.6-3.6-9.4-3.6-13,0l-7.8,7.8c-3.6,3.6-10.1,4.5-14.6,2.2L146.1,32c-4.8-1.5-8.8-6.8-8.8-11.9v-11
	c0-5-4.1-9.2-9.2-9.2h-18.3c-5,0-9.2,4.1-9.2,9.2v11c0,5-3.9,10.4-8.7,11.9l-15.3,6.3c-4.4,2.4-11,1.4-14.5-2.2l-7.8-7.8
	c-3.6-3.6-9.4-3.6-12.9,0l-13,13c-3.6,3.6-3.6,9.4,0,13l7.8,7.8c3.6,3.6,4.5,10.1,2.2,14.6L32,92c-1.5,4.8-6.8,8.7-11.9,8.7l-11,0
	c-5,0-9.2,4.1-9.2,9.2v18.3c0,5,4.1,9.2,9.2,9.2h11c5.1,0,10.4,3.9,11.9,8.8l6.3,15.3c2.4,4.5,1.4,11-2.2,14.6l-7.8,7.8
	c-3.5,3.6-3.5,9.4,0,13l13,13c3.6,3.6,9.4,3.6,12.9,0l7.8-7.8c3.5-3.6,10.1-4.5,14.5-2.1l15.4,6.3c4.8,1.5,8.7,6.8,8.7,11.9v11
	c0,5,4.1,9.2,9.2,9.2h18.3c5,0,9.2-4.1,9.2-9.2v-11c0-5,4-10.4,8.8-11.9l15.3-6.3c4.4-2.4,11-1.4,14.6,2.1l7.8,7.8
	c3.6,3.6,9.4,3.6,13,0l13-13c3.6-3.6,3.6-9.4,0-13l-7.8-7.8c-3.5-3.5-4.5-10.1-2.1-14.6l6.3-15.3c1.5-4.8,6.9-8.7,11.9-8.7h11
	c5,0,9.1-4.1,9.1-9.2v-18.3C238.1,104.9,234,100.8,229,100.8 M164.9,119.1c0,25.3-20.5,45.8-45.8,45.8c-25.3,0-45.8-20.5-45.8-45.8
	c0-25.3,20.5-45.8,45.8-45.8C144.4,73.3,164.9,93.8,164.9,119.1"/>
</svg>
