<?xml version="1.0" encoding="utf-8"?>
<!-- Generator: Adobe Illustrator 19.0.0, SVG Export Plug-In . SVG Version: 6.00 Build 0)  -->
<svg version="1.1" id="图层_1" xmlns="http://www.w3.org/2000/svg" xmlns:xlink="http://www.w3.org/1999/xlink" x="0px" y="0px"
	 viewBox="-979.1 458.6 19.1 22.6" style="enable-background:new -979.1 458.6 19.1 22.6;" xml:space="preserve">
<style type="text/css">
	.st0{fill:#999999;}
</style>
<path id="XMLID_111_" class="st0" d="M-970.5,464.1l8.7-2.1v-1.4l-8.7,2V464.1L-970.5,464.1z M-974.8,474L-974.8,474
	c1,0,1.8,0.3,2.6,0.7v-12.8v-0.1l0,0l0,0l0,0v0v0v0l0,0l0,0l0,0l0,0l0,0l0,0l0,0v0l0,0v0l0,0v0l0,0l0,0c0-0.1,0-0.1,0.1-0.1l0,0l0,0
	l0,0l0,0l0,0l0,0h0l0,0l0,0v0l0,0v0l0,0l0,0l0,0l0,0l0,0v0h0l0,0l0,0l0,0l0,0h0v0l0,0l0,0l0,0h0l0,0l0,0c0,0,0.1,0,0.1,0h0
	c0,0,0.1,0,0.1,0l10.4-2.5c0.4-0.1,0.9,0.2,1,0.6l0,0c0,0.1,0,0.2,0,0.3v15.6v0c0,1-0.5,1.9-1.3,2.6c-0.8,0.6-1.8,1-3,1
	c-1.1,0-2.2-0.4-3-1v0c-0.8-0.7-1.3-1.6-1.3-2.6c0-1,0.5-1.9,1.3-2.6c0.8-0.6,1.8-1,3-1c1,0,1.8,0.3,2.6,0.7v-9.2l-8.7,2v12.4v0v0
	c0,1-0.5,1.9-1.3,2.5c-0.8,0.6-1.8,1-3,1c-1.1,0-2.2-0.4-3-1c-0.8-0.6-1.3-1.6-1.3-2.6c0-1,0.5-1.9,1.3-2.6
	C-977,474.4-975.9,474-974.8,474L-974.8,474z M-972.9,476.4L-972.9,476.4c-0.5-0.4-1.1-0.6-1.9-0.6c-0.8,0-1.4,0.2-1.9,0.6
	c-0.4,0.3-0.7,0.7-0.7,1.2c0,0.5,0.3,0.9,0.7,1.2c0.5,0.4,1.1,0.6,1.9,0.6c0.7,0,1.4-0.2,1.9-0.6c0.4-0.3,0.7-0.7,0.7-1.2
	C-972.2,477.1-972.5,476.7-972.9,476.4L-972.9,476.4z M-962.4,474L-962.4,474c-0.5-0.4-1.1-0.6-1.9-0.6c-0.8,0-1.4,0.2-1.9,0.6
	c-0.4,0.3-0.7,0.7-0.7,1.2c0,0.5,0.3,0.9,0.7,1.2c0.5,0.4,1.1,0.6,1.9,0.6c0.8,0,1.4-0.2,1.9-0.6c0.4-0.3,0.7-0.7,0.7-1.2v0v0v0
	C-961.8,474.7-962,474.3-962.4,474L-962.4,474L-962.4,474z"/>
</svg>
