<?xml version="1.0" encoding="utf-8"?>
<!-- Generator: Adobe Illustrator 19.0.0, SVG Export Plug-In . SVG Version: 6.00 Build 0)  -->
<svg version="1.1" id="图层_1" xmlns="http://www.w3.org/2000/svg" xmlns:xlink="http://www.w3.org/1999/xlink" x="0px" y="0px"
	 viewBox="-948 388.3 21.5 24.7" style="enable-background:new -948 388.3 21.5 24.7;" xml:space="preserve">
<style type="text/css">
	.st0{fill:#1A5BFB;}
	.st1{fill:#999999;}
</style>
<g id="XMLID_129_">
	<path id="XMLID_121_" class="st0" d="M-1871.3,799.9c0,0.5-0.4,0.9-1,0.9c-0.5,0-0.9-0.4-0.9-0.9c0-1.7,0.7-3,1.7-4
		c1.4-1.3,3.3-1.9,4.4-2c0.2,0,0.4-0.1,0.6-0.2c0.1-0.1,0.1-0.2,0.2-0.3c-0.9-0.7-1.3-1.7-1.6-2.6c-0.2-0.4-0.3-0.8-0.4-0.9l0,0l0,0
		l0,0l0,0c-0.4-0.4-1-1.1-1.2-1.8c-0.3-0.8-0.4-1.6,0.1-2.4c-0.2-0.7-0.4-1.5-0.4-2.3c0-1,0.1-2.1,0.5-3v-0.1c0.5-1.3,1.2-2.3,2.2-3
		c1.1-0.7,2.4-1.1,3.9-1.1c0.6,0,1.3,0,2,0.1c0.8,0.1,1.6,0.5,2.1,1.2c1-0.1,1.9,0.5,2.5,1.3c0.8,1,1.4,2.4,1.6,3.2
		c0.1,0.6,0.1,1.3,0,2c-0.1,0.5-0.2,1.1-0.4,1.7c0.5,0.8,0.4,1.7,0.1,2.5s-0.8,1.5-1.3,1.8l0,0l0,0l0,0c-0.1,0.1-0.2,0.5-0.4,0.9
		c-0.3,0.8-0.7,1.8-1.6,2.6c0,0.1,0.1,0.2,0.2,0.3c0.1,0.1,0.3,0.2,0.6,0.2c1.1,0.1,3,0.7,4.4,2c1,0.9,1.7,2.2,1.7,4
		c0,0.5-0.4,0.9-0.9,0.9s-0.9-0.4-0.9-0.9c0-1.1-0.5-2-1.1-2.6c-1-1-2.4-1.4-3.2-1.5c-0.7-0.1-1.3-0.3-1.8-0.8s-1.2-2.4-0.3-3
		c0.7-0.4,1-1.3,1.3-2c0.3-0.6,0.5-1.2,0.9-1.6l0,0l0,0c0.2-0.2,0.6-0.6,0.8-1.1c0.1-0.4,0.2-0.7-0.1-0.9l0,0
		c-0.2-0.3-0.3-0.8-0.2-1.1c0.2-0.6,0.3-1.2,0.4-1.7c0.1-0.5,0.1-1,0-1.4c-0.1-0.6-0.5-1.5-1.1-2.3c-0.3-0.4-0.7-0.7-1-0.6
		c-0.3,0-0.7,0-0.9-0.1c-0.3-0.1-0.5-0.3-0.7-0.6l-0.1-0.1c-0.1-0.2-0.5-0.4-0.9-0.4c-0.6-0.1-1.2-0.1-1.7-0.1
		c-1.1,0-2.1,0.2-2.9,0.8c-0.7,0.4-1.2,1.1-1.5,2v0.1c-0.2,0.7-0.4,1.6-0.4,2.4l0,0c0,0.7,0.1,1.4,0.4,2c0.1,0.2,0.1,0.4,0.1,0.6
		c-0.1,0.6-0.6,0.6-0.3,1.5c0.2,0.4,0.5,0.9,0.7,1.1l0,0l0,0c0.4,0.4,0.6,0.9,0.9,1.6c0.3,0.7,0.6,1.6,1.3,2
		c0.3,0.1,0.5,0.5,0.5,0.8c0,0.8-0.1,1.5-0.7,2.1c-0.4,0.5-1.1,0.7-1.8,0.8c-0.8,0.1-2.2,0.5-3.2,1.5
		C-1870.8,797.9-1871.3,798.7-1871.3,799.9L-1871.3,799.9z"/>
</g>
<path id="XMLID_1_" class="st1" d="M-946.1,412.1c0,0.5-0.4,0.9-1,0.9c-0.5,0-0.9-0.4-0.9-0.9c0-1.7,0.7-3,1.7-4
	c1.4-1.3,3.3-1.9,4.4-2c0.2,0,0.4-0.1,0.6-0.2c0.1-0.1,0.1-0.2,0.2-0.3c-0.9-0.7-1.3-1.7-1.6-2.6c-0.2-0.4-0.3-0.8-0.4-0.9l0,0l0,0
	h0v0c-0.4-0.4-1-1.1-1.2-1.8c-0.3-0.8-0.4-1.6,0.1-2.4c-0.2-0.7-0.4-1.5-0.4-2.3c0-1,0.1-2.1,0.5-3l0-0.1c0.5-1.3,1.2-2.3,2.2-3
	c1.1-0.7,2.4-1.1,3.9-1.1c0.6,0,1.3,0,2,0.1c0.8,0.1,1.6,0.5,2.1,1.2c1-0.1,1.9,0.5,2.5,1.3c0.8,1,1.4,2.4,1.6,3.2
	c0.1,0.6,0.1,1.3,0,2c-0.1,0.5-0.2,1.1-0.4,1.7c0.5,0.8,0.4,1.7,0.1,2.5c-0.3,0.8-0.8,1.5-1.3,1.8l0,0l0,0v0
	c-0.1,0.1-0.2,0.5-0.4,0.9c-0.3,0.8-0.7,1.8-1.6,2.6c0,0.1,0.1,0.2,0.2,0.3c0.1,0.1,0.3,0.2,0.6,0.2c1.1,0.1,3,0.7,4.4,2
	c1,0.9,1.7,2.2,1.7,4c0,0.5-0.4,0.9-0.9,0.9c-0.5,0-0.9-0.4-0.9-0.9c0-1.1-0.5-2-1.1-2.6c-1-1-2.4-1.4-3.2-1.5
	c-0.7-0.1-1.3-0.3-1.8-0.8c-0.5-0.5-1.2-2.4-0.3-3c0.7-0.4,1-1.3,1.3-2c0.3-0.6,0.5-1.2,0.9-1.6v0l0,0c0.2-0.2,0.6-0.6,0.8-1.1
	c0.1-0.4,0.2-0.7-0.1-0.9h0c-0.2-0.3-0.3-0.8-0.2-1.1c0.2-0.6,0.3-1.2,0.4-1.7c0.1-0.5,0.1-1,0-1.4c-0.1-0.6-0.5-1.5-1.1-2.3
	c-0.3-0.4-0.7-0.7-1-0.6c-0.3,0-0.7,0-0.9-0.1c-0.3-0.1-0.5-0.3-0.7-0.6l-0.1-0.1c-0.1-0.2-0.5-0.4-0.9-0.4
	c-0.6-0.1-1.2-0.1-1.7-0.1c-1.1,0-2.1,0.2-2.9,0.8c-0.7,0.4-1.2,1.1-1.5,2l0,0.1c-0.2,0.7-0.4,1.6-0.4,2.4l0,0c0,0.7,0.1,1.4,0.4,2
	c0.1,0.2,0.1,0.4,0.1,0.6c-0.1,0.6-0.6,0.6-0.3,1.5c0.2,0.4,0.5,0.9,0.7,1.1l0,0h0c0.4,0.4,0.6,0.9,0.9,1.6c0.3,0.7,0.6,1.6,1.3,2
	c0.3,0.1,0.5,0.5,0.5,0.8c0,0.8-0.1,1.5-0.7,2.1c-0.4,0.5-1.1,0.7-1.8,0.8c-0.8,0.1-2.2,0.5-3.2,1.5
	C-945.6,410.1-946.1,410.9-946.1,412.1L-946.1,412.1z"/>
</svg>
