<?xml version="1.0" encoding="utf-8"?>
<!-- Generator: Adobe Illustrator 19.0.0, SVG Export Plug-In . SVG Version: 6.00 Build 0)  -->
<svg version="1.1" id="图层_1" xmlns="http://www.w3.org/2000/svg" xmlns:xlink="http://www.w3.org/1999/xlink" x="0px" y="0px"
	 viewBox="-1058.3 462.9 23.7 22.9" style="enable-background:new -1058.3 462.9 23.7 22.9;" xml:space="preserve">
<style type="text/css">
	.st0{fill:#999999;}
</style>
<path id="XMLID_78_" class="st0" d="M-1046.6,462.9c1.1,0,2.2,0.5,2.9,1.2l0,0c0.7,0.7,1.2,1.8,1.2,2.9v0.2c0.2,0.1,0.3,0.1,0.5,0.2
	l2.8-1.6c0.4-0.3,1-0.1,1.3,0.3c0.1,0.2,0.2,0.4,0.1,0.7l-0.6,2.9c0.4,0.4,0.7,0.7,1,1.1c0.3,0.4,0.5,0.8,0.7,1.2h0.1
	c0.6,0,1.1,0.2,1.4,0.6c0.4,0.4,0.6,0.9,0.6,1.4v2.8c0,0.6-0.2,1.1-0.6,1.4h0c-0.4,0.4-0.9,0.6-1.4,0.6h-0.1c-0.2,0.5-0.5,1-0.9,1.4
	c-0.3,0.4-0.7,0.8-1.1,1.1l0.4,0.7l0,0.1c0.3,0.6,0.4,1.3,0.2,1.9c-0.2,0.6-0.6,1.2-1.2,1.6l-0.1,0c-0.6,0.3-1.3,0.4-1.9,0.2h0
	c-0.6-0.2-1.2-0.6-1.6-1.2l0-0.1l-0.5-0.8c-0.4,0.1-0.7,0.2-1.1,0.2c-0.6,0.1-1.3,0.1-1.9,0.1c-0.6,0-1.3,0-1.9-0.1
	c-0.4-0.1-0.7-0.1-1.1-0.2l-0.5,0.9c-0.3,0.6-0.9,1-1.6,1.2l-0.1,0c-0.6,0.1-1.3,0.1-1.9-0.3l0,0c-0.6-0.4-1-0.9-1.2-1.5
	c-0.2-0.6-0.1-1.3,0.3-2v0l0.4-0.7c-0.8-0.7-1.4-1.5-1.9-2.4c-0.5-1-0.8-2-0.9-3.2l-0.1,0l0,0c-0.3-0.1-0.6-0.3-0.8-0.6
	c-0.5-0.5-0.8-1.2-0.8-1.9c0-0.7,0.3-1.4,0.8-1.9c0.2-0.2,0.6-0.2,0.8,0c0.2,0.2,0.2,0.6,0,0.8c-0.3,0.3-0.5,0.7-0.5,1.1
	c0,0.4,0.2,0.8,0.5,1.1c0.1,0.1,0.2,0.1,0.2,0.2c0.2-2.1,1.4-4,3-5.4c0.8-0.7,1.7-1.2,2.8-1.6c0-0.2,0-0.3,0-0.4
	c0-1.1,0.5-2.2,1.2-2.9v0C-1048.8,463.3-1047.8,462.9-1046.6,462.9L-1046.6,462.9z M-1046.2,466.6L-1046.2,466.6
	c0.8,0,1.6,0.1,2.4,0.2l0.2,0c0-0.8-0.4-1.5-0.9-2l0,0c-0.5-0.5-1.3-0.9-2.1-0.9s-1.6,0.3-2.1,0.9c-0.5,0.6-0.9,1.3-0.9,2.1v0.1
	C-1048.6,466.7-1047.4,466.6-1046.2,466.6L-1046.2,466.6z M-1044.2,468.6L-1044.2,468.6c-0.6-0.1-1.3-0.2-2-0.2
	c-2.4,0-4.5,0.8-6.1,2.1c-1.5,1.2-2.4,2.9-2.4,4.8c0,1,0.2,1.9,0.7,2.7c0.5,0.9,1.1,1.7,2,2.3c0.4,0.3,0.5,0.8,0.2,1.2l-0.8,1.3
	c0,0,0,0.1-0.1,0.1c-0.1,0.2-0.1,0.3,0,0.5c0,0.2,0.1,0.3,0.3,0.4l0.1,0c0.2,0.1,0.3,0.1,0.5,0.1l0,0c0.2,0,0.3-0.2,0.4-0.3l0.9-1.5
	c0.2-0.4,0.7-0.6,1.1-0.5c0.5,0.2,1,0.3,1.5,0.4c0.5,0.1,1,0.1,1.6,0.1c0.6,0,1.1,0,1.6-0.1c0.5-0.1,1-0.2,1.5-0.4
	c0.4-0.1,0.9,0,1.1,0.4l0.8,1.4c0,0,0.1,0.1,0.1,0.1c0.1,0.2,0.2,0.3,0.4,0.3c0.2,0,0.3,0,0.5-0.1l0.1-0.1c0.1-0.1,0.3-0.2,0.3-0.4
	c0-0.2,0-0.3,0-0.5c0,0-0.1-0.1-0.1-0.1l-0.7-1.3c-0.2-0.4-0.1-0.9,0.2-1.2c0.5-0.4,1-0.8,1.4-1.3c0.4-0.5,0.7-1,0.9-1.5
	c0.1-0.4,0.5-0.6,0.9-0.6h0.7c0,0,0.1,0,0.1-0.1c0,0,0-0.1,0-0.1v-2.8c0,0,0-0.1,0-0.1c0,0-0.1-0.1-0.1-0.1h-0.7
	c-0.4,0-0.7-0.2-0.9-0.6c-0.2-0.5-0.4-0.9-0.8-1.4c-0.3-0.4-0.7-0.8-1.1-1.2c-0.3-0.2-0.4-0.6-0.3-0.9l0.3-1.3l-1.3,0.8
	c-0.3,0.2-0.6,0.2-0.9,0.1C-1042.9,468.9-1043.5,468.7-1044.2,468.6L-1044.2,468.6z M-1040.8,472.1L-1040.8,472.1
	c-0.4,0-0.8,0.2-1.1,0.5c-0.3,0.3-0.5,0.7-0.5,1.1c0,0.4,0.2,0.8,0.5,1.1l0,0c0.3,0.3,0.7,0.5,1.1,0.5c0.4,0,0.8-0.2,1.1-0.5
	c0.3-0.3,0.5-0.7,0.5-1.1c0-0.4-0.2-0.8-0.4-1.1l0,0C-1039.9,472.2-1040.3,472.1-1040.8,472.1L-1040.8,472.1z M-1040.4,473.3
	L-1040.4,473.3c-0.1-0.1-0.2-0.1-0.3-0.1c-0.1,0-0.3,0.1-0.3,0.1c-0.1,0.1-0.2,0.2-0.2,0.3c0,0.1,0.1,0.3,0.2,0.3
	c0.1,0.1,0.2,0.1,0.3,0.1c0.1,0,0.3-0.1,0.3-0.1c0.1-0.1,0.1-0.2,0.1-0.3C-1040.3,473.5-1040.3,473.4-1040.4,473.3L-1040.4,473.3
	L-1040.4,473.3L-1040.4,473.3z"/>
</svg>
