<?xml version="1.0" encoding="utf-8"?>
<!-- Generator: Adobe Illustrator 19.0.0, SVG Export Plug-In . SVG Version: 6.00 Build 0)  -->
<svg version="1.1" id="图层_1" xmlns="http://www.w3.org/2000/svg" xmlns:xlink="http://www.w3.org/1999/xlink" x="0px" y="0px"
	 viewBox="-1115.4 474 20.1 22.9" style="enable-background:new -1115.4 474 20.1 22.9;" xml:space="preserve">
<style type="text/css">
	.st0{fill:#999999;}
</style>
<path id="XMLID_116_" class="st0" d="M-1105.3,474c2.8,0,5.3,1.1,7.1,3c3.4,3.4,3.9,8.8,1.2,12.8c-1.1,1.6-2.7,2.9-4.5,3.6l-3.2,3.3
	c-0.3,0.3-0.9,0.3-1.2,0l0,0l0,0l-3.2-3.3c-1.8-0.7-3.4-2-4.5-3.6c-2.7-3.9-2.2-9.4,1.2-12.8C-1110.6,475.1-1108.1,474-1105.3,474
	L-1105.3,474z M-1105.3,478.9L-1105.3,478.9c1.4,0,2.7,0.6,3.6,1.5c0.9,0.9,1.5,2.2,1.5,3.6c0,1.4-0.6,2.7-1.5,3.6
	c-0.9,0.9-2.2,1.5-3.6,1.5c-1.4,0-2.7-0.6-3.6-1.5c-0.9-0.9-1.5-2.2-1.5-3.6c0-1.4,0.6-2.7,1.5-3.6
	C-1108,479.5-1106.7,478.9-1105.3,478.9L-1105.3,478.9z M-1102.5,481.2L-1102.5,481.2c-0.7-0.7-1.7-1.2-2.8-1.2
	c-1.1,0-2.1,0.4-2.8,1.2c-0.7,0.7-1.2,1.7-1.2,2.8c0,1.1,0.4,2.1,1.2,2.8c0.7,0.7,1.7,1.2,2.8,1.2c1.1,0,2.1-0.4,2.8-1.2
	c0.7-0.7,1.2-1.7,1.2-2.8C-1101.3,482.9-1101.8,481.9-1102.5,481.2L-1102.5,481.2z M-1099.5,478.1L-1099.5,478.1
	c-1.5-1.5-3.6-2.4-5.9-2.4c-2.3,0-4.4,0.9-5.9,2.4c-2.8,2.8-3.2,7.3-1,10.5c0.9,1.4,2.2,2.4,3.8,3.1c0.1,0,0.2,0.1,0.3,0.2l2.7,2.8
	l2.7-2.8c0.1-0.1,0.2-0.2,0.3-0.2c1.6-0.6,2.9-1.7,3.8-3.1C-1096.3,485.4-1096.7,481-1099.5,478.1L-1099.5,478.1z"/>
</svg>
