<?xml version="1.0" encoding="utf-8"?>
<!-- Generator: Adobe Illustrator 19.0.0, SVG Export Plug-In . SVG Version: 6.00 Build 0)  -->
<svg version="1.1" id="图层_1" xmlns="http://www.w3.org/2000/svg" xmlns:xlink="http://www.w3.org/1999/xlink" x="0px" y="0px"
	 viewBox="0 0 152.9 124.6" style="enable-background:new 0 0 152.9 124.6;" xml:space="preserve">
<path id="XMLID_176_" d="M103.5,37.7c1.8,0,3.5,0.1,5.2,0.3c-4.7-21.8-28-38-54.6-38C24.4,0,0,20.3,0,46c0,14.9,8.1,27.1,21.7,36.5
	l-5.4,16.3l18.9-9.5c6.8,1.3,12.2,2.7,19,2.7c1.7,0,3.4-0.1,5.1-0.2c-1.1-3.6-1.7-7.4-1.7-11.3C57.5,56.9,77.8,37.7,103.5,37.7z
	 M74.4,23c4.1,0,6.8,2.7,6.8,6.8c0,4.1-2.7,6.8-6.8,6.8c-4.1,0-8.1-2.7-8.1-6.8C66.3,25.7,70.4,23,74.4,23z M36.5,36.5
	c-4.1,0-8.2-2.7-8.2-6.8c0-4.1,4.1-6.8,8.2-6.8c4.1,0,6.8,2.7,6.8,6.8C43.3,33.8,40.6,36.5,36.5,36.5z M152.9,79.9
	c0-21.6-21.7-39.3-46-39.3c-25.8,0-46,17.6-46,39.3c0,21.7,20.3,39.3,46,39.3c5.4,0,10.8-1.4,16.2-2.7l14.8,8.1L134,111
	C144.8,102.9,152.9,92.1,152.9,79.9z M92,73.1c-2.7,0-5.4-2.7-5.4-5.4c0-2.7,2.7-5.4,5.4-5.4c4.1,0,6.8,2.7,6.8,5.4
	C98.8,70.4,96.1,73.1,92,73.1z M121.8,73.1c-2.7,0-5.4-2.7-5.4-5.4c0-2.7,2.7-5.4,5.4-5.4c4.1,0,6.8,2.7,6.8,5.4
	C128.6,70.4,125.9,73.1,121.8,73.1z"/>
</svg>
